<mxfile host="app.diagrams.net" modified="2025-02-19T17:43:45.068Z" agent="Mozilla/5.0 (Macintosh; Intel Mac OS X 10_15_7) AppleWebKit/537.36 (KHTML, like Gecko) Chrome/132.0.0.0 Safari/537.36" etag="-SYJs_BMKFYPO5FOzD8-" version="24.1.0" type="device">
  <diagram name="Page-1" id="up-nk19sZ6rdLOEwLt72">
    <mxGraphModel dx="586" dy="371" grid="1" gridSize="10" guides="1" tooltips="1" connect="1" arrows="1" fold="1" page="1" pageScale="1" pageWidth="827" pageHeight="1169" math="0" shadow="0">
      <root>
        <mxCell id="0" />
        <mxCell id="1" parent="0" />
        <mxCell id="ld7h1SibL1p74enXCl7w-1" value="name" style="rounded=0;whiteSpace=wrap;html=1;" vertex="1" parent="1">
          <mxGeometry x="195" y="130" width="55" height="20" as="geometry" />
        </mxCell>
        <mxCell id="ld7h1SibL1p74enXCl7w-2" value="Stack" style="text;html=1;align=center;verticalAlign=middle;whiteSpace=wrap;rounded=0;fontSize=24;" vertex="1" parent="1">
          <mxGeometry x="230" y="50" width="60" height="30" as="geometry" />
        </mxCell>
        <mxCell id="ld7h1SibL1p74enXCl7w-3" value="Heap" style="text;html=1;align=center;verticalAlign=middle;whiteSpace=wrap;rounded=0;fontSize=24;" vertex="1" parent="1">
          <mxGeometry x="470" y="50" width="60" height="30" as="geometry" />
        </mxCell>
        <mxCell id="ld7h1SibL1p74enXCl7w-4" value="Value" style="rounded=0;whiteSpace=wrap;html=1;" vertex="1" parent="1">
          <mxGeometry x="250" y="130" width="80" height="20" as="geometry" />
        </mxCell>
        <mxCell id="ld7h1SibL1p74enXCl7w-5" value="ptr" style="rounded=0;whiteSpace=wrap;html=1;" vertex="1" parent="1">
          <mxGeometry x="195" y="150" width="55" height="20" as="geometry" />
        </mxCell>
        <mxCell id="ld7h1SibL1p74enXCl7w-6" value="0x0001000" style="rounded=0;whiteSpace=wrap;html=1;" vertex="1" parent="1">
          <mxGeometry x="250" y="150" width="80" height="20" as="geometry" />
        </mxCell>
        <mxCell id="ld7h1SibL1p74enXCl7w-7" value="len" style="rounded=0;whiteSpace=wrap;html=1;" vertex="1" parent="1">
          <mxGeometry x="195" y="170" width="55" height="20" as="geometry" />
        </mxCell>
        <mxCell id="ld7h1SibL1p74enXCl7w-8" value="3" style="rounded=0;whiteSpace=wrap;html=1;" vertex="1" parent="1">
          <mxGeometry x="250" y="170" width="80" height="20" as="geometry" />
        </mxCell>
        <mxCell id="ld7h1SibL1p74enXCl7w-9" value="cap" style="rounded=0;whiteSpace=wrap;html=1;" vertex="1" parent="1">
          <mxGeometry x="195" y="190" width="55" height="20" as="geometry" />
        </mxCell>
        <mxCell id="ld7h1SibL1p74enXCl7w-10" value="3" style="rounded=0;whiteSpace=wrap;html=1;" vertex="1" parent="1">
          <mxGeometry x="250" y="190" width="80" height="20" as="geometry" />
        </mxCell>
        <mxCell id="ld7h1SibL1p74enXCl7w-11" value="1" style="rounded=0;whiteSpace=wrap;html=1;" vertex="1" parent="1">
          <mxGeometry x="419" y="200" width="55" height="20" as="geometry" />
        </mxCell>
        <mxCell id="ld7h1SibL1p74enXCl7w-12" value="2" style="rounded=0;whiteSpace=wrap;html=1;" vertex="1" parent="1">
          <mxGeometry x="419" y="220" width="55" height="20" as="geometry" />
        </mxCell>
        <mxCell id="ld7h1SibL1p74enXCl7w-13" value="3" style="rounded=0;whiteSpace=wrap;html=1;" vertex="1" parent="1">
          <mxGeometry x="419" y="240" width="55" height="20" as="geometry" />
        </mxCell>
        <mxCell id="ld7h1SibL1p74enXCl7w-14" value="0x0001000" style="rounded=0;whiteSpace=wrap;html=1;" vertex="1" parent="1">
          <mxGeometry x="474" y="200" width="86" height="20" as="geometry" />
        </mxCell>
        <mxCell id="ld7h1SibL1p74enXCl7w-15" value="Value" style="rounded=0;whiteSpace=wrap;html=1;" vertex="1" parent="1">
          <mxGeometry x="419" y="180" width="55" height="20" as="geometry" />
        </mxCell>
        <mxCell id="ld7h1SibL1p74enXCl7w-16" value="Address" style="rounded=0;whiteSpace=wrap;html=1;" vertex="1" parent="1">
          <mxGeometry x="474" y="180" width="86" height="20" as="geometry" />
        </mxCell>
        <mxCell id="ld7h1SibL1p74enXCl7w-17" value="0x0001004" style="rounded=0;whiteSpace=wrap;html=1;" vertex="1" parent="1">
          <mxGeometry x="474" y="220" width="86" height="20" as="geometry" />
        </mxCell>
        <mxCell id="ld7h1SibL1p74enXCl7w-18" value="0x0001008" style="rounded=0;whiteSpace=wrap;html=1;" vertex="1" parent="1">
          <mxGeometry x="474" y="240" width="86" height="20" as="geometry" />
        </mxCell>
        <mxCell id="ld7h1SibL1p74enXCl7w-19" value="&lt;font style=&quot;font-size: 24px;&quot;&gt;&lt;b&gt;v&lt;/b&gt;&lt;/font&gt;" style="text;html=1;align=center;verticalAlign=middle;whiteSpace=wrap;rounded=0;" vertex="1" parent="1">
          <mxGeometry x="180" y="90" width="60" height="30" as="geometry" />
        </mxCell>
        <mxCell id="ld7h1SibL1p74enXCl7w-20" value="&lt;span style=&quot;font-size: 24px;&quot;&gt;&lt;b&gt;num&lt;/b&gt;&lt;/span&gt;" style="text;html=1;align=center;verticalAlign=middle;whiteSpace=wrap;rounded=0;" vertex="1" parent="1">
          <mxGeometry x="180" y="260" width="60" height="30" as="geometry" />
        </mxCell>
        <mxCell id="ld7h1SibL1p74enXCl7w-21" value="name" style="rounded=0;whiteSpace=wrap;html=1;" vertex="1" parent="1">
          <mxGeometry x="195" y="300" width="55" height="20" as="geometry" />
        </mxCell>
        <mxCell id="ld7h1SibL1p74enXCl7w-22" value="Value" style="rounded=0;whiteSpace=wrap;html=1;" vertex="1" parent="1">
          <mxGeometry x="250" y="300" width="80" height="20" as="geometry" />
        </mxCell>
        <mxCell id="ld7h1SibL1p74enXCl7w-23" value="ptr" style="rounded=0;whiteSpace=wrap;html=1;" vertex="1" parent="1">
          <mxGeometry x="195" y="320" width="55" height="20" as="geometry" />
        </mxCell>
        <mxCell id="ld7h1SibL1p74enXCl7w-24" value="0x0001008" style="rounded=0;whiteSpace=wrap;html=1;" vertex="1" parent="1">
          <mxGeometry x="250" y="320" width="80" height="20" as="geometry" />
        </mxCell>
        <mxCell id="ld7h1SibL1p74enXCl7w-26" value="" style="endArrow=classic;html=1;rounded=0;entryX=0;entryY=0.5;entryDx=0;entryDy=0;exitX=1;exitY=0.5;exitDx=0;exitDy=0;" edge="1" parent="1" source="ld7h1SibL1p74enXCl7w-6" target="ld7h1SibL1p74enXCl7w-11">
          <mxGeometry width="50" height="50" relative="1" as="geometry">
            <mxPoint x="370" y="240" as="sourcePoint" />
            <mxPoint x="420" y="190" as="targetPoint" />
          </mxGeometry>
        </mxCell>
        <mxCell id="ld7h1SibL1p74enXCl7w-27" value="" style="endArrow=classic;html=1;rounded=0;entryX=0;entryY=0.5;entryDx=0;entryDy=0;exitX=1;exitY=0.5;exitDx=0;exitDy=0;" edge="1" parent="1" source="ld7h1SibL1p74enXCl7w-24" target="ld7h1SibL1p74enXCl7w-13">
          <mxGeometry width="50" height="50" relative="1" as="geometry">
            <mxPoint x="340" y="170" as="sourcePoint" />
            <mxPoint x="429" y="220" as="targetPoint" />
          </mxGeometry>
        </mxCell>
        <mxCell id="ld7h1SibL1p74enXCl7w-28" value="&lt;span style=&quot;font-size: 24px;&quot;&gt;&lt;b&gt;v.push(4) -&amp;gt; can trigger a reallocation&lt;/b&gt;&lt;/span&gt;" style="text;html=1;align=center;verticalAlign=middle;whiteSpace=wrap;rounded=0;" vertex="1" parent="1">
          <mxGeometry x="80" y="370" width="470" height="30" as="geometry" />
        </mxCell>
        <mxCell id="ld7h1SibL1p74enXCl7w-29" value="name" style="rounded=0;whiteSpace=wrap;html=1;" vertex="1" parent="1">
          <mxGeometry x="195" y="450" width="55" height="20" as="geometry" />
        </mxCell>
        <mxCell id="ld7h1SibL1p74enXCl7w-30" value="Value" style="rounded=0;whiteSpace=wrap;html=1;" vertex="1" parent="1">
          <mxGeometry x="250" y="450" width="80" height="20" as="geometry" />
        </mxCell>
        <mxCell id="ld7h1SibL1p74enXCl7w-31" value="ptr" style="rounded=0;whiteSpace=wrap;html=1;" vertex="1" parent="1">
          <mxGeometry x="195" y="470" width="55" height="20" as="geometry" />
        </mxCell>
        <mxCell id="ld7h1SibL1p74enXCl7w-32" value="0x0002000" style="rounded=0;whiteSpace=wrap;html=1;" vertex="1" parent="1">
          <mxGeometry x="250" y="470" width="80" height="20" as="geometry" />
        </mxCell>
        <mxCell id="ld7h1SibL1p74enXCl7w-33" value="len" style="rounded=0;whiteSpace=wrap;html=1;" vertex="1" parent="1">
          <mxGeometry x="195" y="490" width="55" height="20" as="geometry" />
        </mxCell>
        <mxCell id="ld7h1SibL1p74enXCl7w-34" value="4" style="rounded=0;whiteSpace=wrap;html=1;" vertex="1" parent="1">
          <mxGeometry x="250" y="490" width="80" height="20" as="geometry" />
        </mxCell>
        <mxCell id="ld7h1SibL1p74enXCl7w-35" value="cap" style="rounded=0;whiteSpace=wrap;html=1;" vertex="1" parent="1">
          <mxGeometry x="195" y="510" width="55" height="20" as="geometry" />
        </mxCell>
        <mxCell id="ld7h1SibL1p74enXCl7w-36" value="4" style="rounded=0;whiteSpace=wrap;html=1;" vertex="1" parent="1">
          <mxGeometry x="250" y="510" width="80" height="20" as="geometry" />
        </mxCell>
        <mxCell id="ld7h1SibL1p74enXCl7w-37" value="??" style="rounded=0;whiteSpace=wrap;html=1;" vertex="1" parent="1">
          <mxGeometry x="419" y="520" width="55" height="20" as="geometry" />
        </mxCell>
        <mxCell id="ld7h1SibL1p74enXCl7w-38" value="??" style="rounded=0;whiteSpace=wrap;html=1;" vertex="1" parent="1">
          <mxGeometry x="419" y="540" width="55" height="20" as="geometry" />
        </mxCell>
        <mxCell id="ld7h1SibL1p74enXCl7w-39" value="??" style="rounded=0;whiteSpace=wrap;html=1;" vertex="1" parent="1">
          <mxGeometry x="419" y="560" width="55" height="20" as="geometry" />
        </mxCell>
        <mxCell id="ld7h1SibL1p74enXCl7w-40" value="0x0001000" style="rounded=0;whiteSpace=wrap;html=1;" vertex="1" parent="1">
          <mxGeometry x="474" y="520" width="86" height="20" as="geometry" />
        </mxCell>
        <mxCell id="ld7h1SibL1p74enXCl7w-41" value="Value" style="rounded=0;whiteSpace=wrap;html=1;" vertex="1" parent="1">
          <mxGeometry x="419" y="500" width="55" height="20" as="geometry" />
        </mxCell>
        <mxCell id="ld7h1SibL1p74enXCl7w-42" value="Address" style="rounded=0;whiteSpace=wrap;html=1;" vertex="1" parent="1">
          <mxGeometry x="474" y="500" width="86" height="20" as="geometry" />
        </mxCell>
        <mxCell id="ld7h1SibL1p74enXCl7w-43" value="0x0001004" style="rounded=0;whiteSpace=wrap;html=1;" vertex="1" parent="1">
          <mxGeometry x="474" y="540" width="86" height="20" as="geometry" />
        </mxCell>
        <mxCell id="ld7h1SibL1p74enXCl7w-44" value="0x0001008" style="rounded=0;whiteSpace=wrap;html=1;" vertex="1" parent="1">
          <mxGeometry x="474" y="560" width="86" height="20" as="geometry" />
        </mxCell>
        <mxCell id="ld7h1SibL1p74enXCl7w-45" value="&lt;font style=&quot;font-size: 24px;&quot;&gt;&lt;b&gt;v&lt;/b&gt;&lt;/font&gt;" style="text;html=1;align=center;verticalAlign=middle;whiteSpace=wrap;rounded=0;" vertex="1" parent="1">
          <mxGeometry x="180" y="410" width="60" height="30" as="geometry" />
        </mxCell>
        <mxCell id="ld7h1SibL1p74enXCl7w-46" value="&lt;span style=&quot;font-size: 24px;&quot;&gt;&lt;b&gt;num&lt;/b&gt;&lt;/span&gt;" style="text;html=1;align=center;verticalAlign=middle;whiteSpace=wrap;rounded=0;" vertex="1" parent="1">
          <mxGeometry x="180" y="580" width="60" height="30" as="geometry" />
        </mxCell>
        <mxCell id="ld7h1SibL1p74enXCl7w-47" value="name" style="rounded=0;whiteSpace=wrap;html=1;" vertex="1" parent="1">
          <mxGeometry x="195" y="620" width="55" height="20" as="geometry" />
        </mxCell>
        <mxCell id="ld7h1SibL1p74enXCl7w-48" value="Value" style="rounded=0;whiteSpace=wrap;html=1;" vertex="1" parent="1">
          <mxGeometry x="250" y="620" width="80" height="20" as="geometry" />
        </mxCell>
        <mxCell id="ld7h1SibL1p74enXCl7w-49" value="ptr" style="rounded=0;whiteSpace=wrap;html=1;" vertex="1" parent="1">
          <mxGeometry x="195" y="640" width="55" height="20" as="geometry" />
        </mxCell>
        <mxCell id="ld7h1SibL1p74enXCl7w-50" value="0x0001008" style="rounded=0;whiteSpace=wrap;html=1;" vertex="1" parent="1">
          <mxGeometry x="250" y="640" width="80" height="20" as="geometry" />
        </mxCell>
        <mxCell id="ld7h1SibL1p74enXCl7w-51" value="" style="endArrow=classic;html=1;rounded=0;entryX=0;entryY=0.5;entryDx=0;entryDy=0;exitX=1;exitY=0.5;exitDx=0;exitDy=0;" edge="1" parent="1" source="ld7h1SibL1p74enXCl7w-32" target="ld7h1SibL1p74enXCl7w-55">
          <mxGeometry width="50" height="50" relative="1" as="geometry">
            <mxPoint x="370" y="560" as="sourcePoint" />
            <mxPoint x="420" y="510" as="targetPoint" />
          </mxGeometry>
        </mxCell>
        <mxCell id="ld7h1SibL1p74enXCl7w-52" value="" style="endArrow=classic;html=1;rounded=0;entryX=0;entryY=0.5;entryDx=0;entryDy=0;exitX=1;exitY=0.5;exitDx=0;exitDy=0;" edge="1" parent="1" source="ld7h1SibL1p74enXCl7w-50" target="ld7h1SibL1p74enXCl7w-39">
          <mxGeometry width="50" height="50" relative="1" as="geometry">
            <mxPoint x="340" y="490" as="sourcePoint" />
            <mxPoint x="429" y="540" as="targetPoint" />
          </mxGeometry>
        </mxCell>
        <mxCell id="ld7h1SibL1p74enXCl7w-53" value="..." style="rounded=0;whiteSpace=wrap;html=1;" vertex="1" parent="1">
          <mxGeometry x="419" y="580" width="55" height="20" as="geometry" />
        </mxCell>
        <mxCell id="ld7h1SibL1p74enXCl7w-54" value="..." style="rounded=0;whiteSpace=wrap;html=1;" vertex="1" parent="1">
          <mxGeometry x="474" y="580" width="86" height="20" as="geometry" />
        </mxCell>
        <mxCell id="ld7h1SibL1p74enXCl7w-55" value="1" style="rounded=0;whiteSpace=wrap;html=1;" vertex="1" parent="1">
          <mxGeometry x="419" y="600" width="55" height="20" as="geometry" />
        </mxCell>
        <mxCell id="ld7h1SibL1p74enXCl7w-56" value="2" style="rounded=0;whiteSpace=wrap;html=1;" vertex="1" parent="1">
          <mxGeometry x="419" y="620" width="55" height="20" as="geometry" />
        </mxCell>
        <mxCell id="ld7h1SibL1p74enXCl7w-57" value="0x0002000" style="rounded=0;whiteSpace=wrap;html=1;" vertex="1" parent="1">
          <mxGeometry x="474" y="600" width="86" height="20" as="geometry" />
        </mxCell>
        <mxCell id="ld7h1SibL1p74enXCl7w-58" value="0x0002004" style="rounded=0;whiteSpace=wrap;html=1;" vertex="1" parent="1">
          <mxGeometry x="474" y="620" width="86" height="20" as="geometry" />
        </mxCell>
        <mxCell id="ld7h1SibL1p74enXCl7w-59" value="3" style="rounded=0;whiteSpace=wrap;html=1;" vertex="1" parent="1">
          <mxGeometry x="419" y="640" width="55" height="20" as="geometry" />
        </mxCell>
        <mxCell id="ld7h1SibL1p74enXCl7w-60" value="0x0002008" style="rounded=0;whiteSpace=wrap;html=1;" vertex="1" parent="1">
          <mxGeometry x="474" y="640" width="86" height="20" as="geometry" />
        </mxCell>
        <mxCell id="ld7h1SibL1p74enXCl7w-61" value="4" style="rounded=0;whiteSpace=wrap;html=1;" vertex="1" parent="1">
          <mxGeometry x="419" y="660" width="55" height="20" as="geometry" />
        </mxCell>
        <mxCell id="ld7h1SibL1p74enXCl7w-62" value="0x000200C" style="rounded=0;whiteSpace=wrap;html=1;" vertex="1" parent="1">
          <mxGeometry x="474" y="660" width="86" height="20" as="geometry" />
        </mxCell>
      </root>
    </mxGraphModel>
  </diagram>
</mxfile>
